<?xml version="1.0" encoding="UTF-8"?>
<svg xmlns="http://www.w3.org/2000/svg" viewBox="0 0 3462.7 2047.8" width="2400" height="1419.347386659"><g fill="#303735"><path d="M1409.3 1205.2c-13.8-27.8-41.6-45.7-73.2-45.7-60.8 0-104.1 21.7-145.5 45.5-2.7 1.5-4.3 3.3-5.4 5.3-1.1 2-1.6 4.5-1.7 7.9v.3c.1 8.3.1 208.8-.1 217.3v.7c0 4.2.8 6.4 1.7 7.3.4.5 1 .9 2 1.2 1 .3 2.3.5 4.2.5.6 0 40.6-.3 42.2-.6.9-.2 1.4-.3 1.6-.4l.3-.3c.1-.2.4-.8.5-2.1.2-1.7.2-4.4.2-8.1 0-5.9 0-160.9-.2-185.9v-.4c0-5.2.9-9.8 3.3-13.7 2.4-3.9 6.2-6.8 11-8.4 19.1-6.7 38.4-14.6 58.7-18.8 3.4-.7 7.3-1.1 10.9-1.1 10.1 0 20.1 2.8 28.8 8.8 8.5 5.9 16.7 15.1 19.3 27.6.2.9.3 2.1.4 3.8.1 1.7.2 4 .4 6.6.2 5.3 2.6 179.7 2.5 185.7v.5c0 3.1.6 4.6 1.2 5.1.3.3.7.6 1.5.9.8.2 1.9.4 3.4.4h.6c5.1-.1 26.2-.1 31.7-.1h6.4c2.8 0 4.8-.5 5.6-1.1.5-.3.8-.7 1-1.3.3-.6.5-1.7.5-3.3v-.1c-.4-62 .4-124-1.4-185.8-.3-15.8-5-33.3-12.4-48.2zM1031.5 1163.6c-10.3-1.8-20.5-2.7-30.5-2.9l-2.5-.1c-9.2.3-18.5 1.2-27.9 2.8-38 6.5-67.5 26.3-85.4 61.1-12.5 24.3-17.5 49.5-17.5 75.3 0 17.1 2.2 34.4 5.8 51.7 3.4 16.2 11 32.6 20 46.9 19.5 30.9 49.6 45.2 85.6 49.2 7.4.8 14.7 1.2 21.9 1.3l2.5.1c6.4-.2 12.8-.4 19.3-1.1 36-4 64.4-18.3 83.9-49.2 9-14.3 16.6-30.7 20-46.9 3.7-17.3 5.8-34.7 5.8-51.7 0-25.8-5-51-17.5-75.3-17.8-34.9-45.5-54.7-83.5-61.2zm51.6 141c0 15.4-2.2 30.7-6.2 46-1.3 5-3.3 9.9-5.7 14.6-4 7.9-9.4 15.2-15.2 21.4-3.4 3.6-7 6.6-10.8 9.1-1.9 1.3-3.9 2.4-5.8 3.4l-1.3.8h-.1c-10.7 5.2-22.3 7-34 7h-.1c-.7 0-1.8-.1-3-.1-1.2-.1-2.4-.1-2.7-.1h-.1c-11.8 0-23.4-1.8-34.1-7h-.2l-1.3-.7c-2-1-3.9-2.1-5.8-3.4-3.8-2.5-7.4-5.5-10.8-9.1-5.8-6.1-11.2-13.5-15.2-21.4-2.4-4.7-4.4-9.6-5.7-14.6-4-15.3-6.2-30.6-6.2-46 0-18.6 3.2-37.2 10.3-55.6.3-.7.6-1.3.8-1.7 11-26.4 36.7-40.8 62-43.9 1.2-.1 3.1-.2 5.4-.2 4.7 0 10.5.2 12.8.5 25.3 3.1 51 17.5 62 43.9.2.4.5 1 .7 1.7 7 18.4 10.2 36.9 10.3 55.5v-.1zM1726.7 1166.8c-.6-.5-2.5-1.1-5.6-1.1-13.6-.2-27.2-.8-40.7-1.7-.5 0-.9-.1-1.4-.1-2.9 0-4.1.6-5.2 1.6-1 .9-2 2.9-2.7 6-4.4 20.5-27.7 108.5-48 169.3-6.8 20.3-13.1 37.4-18.5 48.2-1.9 3.6-5.4 6.2-9.2 7.4l-.7.2-.7-.2c-3.7-1.1-7.3-3.7-9.2-7.4-5.3-10.8-11.7-28-18.5-48.2-6.7-20.2-13.8-43.5-20.4-66.3-13.2-45.6-24.6-89.3-27.5-103-.7-3.2-1.7-5.1-2.7-6-1-1-2.3-1.5-5.2-1.6-.4 0-.9 0-1.4.1-13.5.9-27.1 1.6-40.7 1.7-3.1 0-4.9.6-5.6 1.1l-.7.9c-.2.4-.3.9-.3 1.9 0 .9.1 2 .5 3.4 3.7 15.7 18.1 65.1 34.5 116.3s34.9 104.3 46.5 127.4c4 7.9 7 13.9 9.6 18.1 2.6 4.3 4.8 6.8 7.3 8.3 2.3 1.5 5.3 2.4 9.8 2.9 4.5.5 10.5.6 18.6.6h12c8 0 14-.1 18.6-.6 4.5-.5 7.5-1.4 9.8-2.9 2.5-1.5 4.7-4.1 7.3-8.3 2.6-4.3 5.6-10.2 9.6-18.1 11.7-23.1 30.2-76.2 46.5-127.4 16.4-51.2 30.8-100.6 34.5-116.3.3-1.4.5-2.5.5-3.4 0-1-.2-1.5-.3-1.9l-.4-.9zM831.8 1424.6l-10.9-29.5c-.7-1.8-2.3-2.9-4.1-2.9l-1.3.2c-6.1 1.9-13 4-20.7 6.1-10.8 3-25.9 4.3-45.5 4.5h-.6c-17.4 0-32.8-4.1-44.9-9.3-12.1-5.2-20.9-11.4-25.2-16-8.3-8.7-15.1-19.3-20.4-31.5-5.4-12.4-8-26.4-8-42.1 0-16.4 2.6-31 8-43.6 5.3-12.4 11.7-23.3 20.5-31.4 16.2-14.6 37.8-22.6 70.4-24.2 3-.2 5.8-.2 8.6-.2 15.2 0 27.4 2.2 36.4 4.7 7.4 2.1 13.9 4.1 19.7 6.2.5.2 1 .3 1.5.3 1.8 0 3.6-1.1 4.2-3l9.8-29.7c.2-.5.2-1 .2-1.5 0-1.8-1.1-3.4-2.8-4.1-2.2-.9-4.6-1.8-7.2-2.7-5.1-1.8-11.3-3.6-18.7-5.2-7.4-1.6-16-3.1-25.9-4.3-9.8-1.2-22.9-1.8-36.1-1.8-18.4 0-38.4 3.2-55.7 10-17.3 6.7-29.8 15.5-43.1 27.9-13.1 12.1-21.6 27.5-29.6 45-7.9 17.3-11.5 36.5-11.5 57.8 0 20.9 3 40 9.7 57.3 6.8 17.4 15.7 32.1 28.1 44.2 12.6 12.4 23 21.8 40.4 28.7 17.4 6.9 39.4 10.4 61.1 10.4 27.7 0 50.4-2 64.7-5.8 11-2.9 19.8-5.8 26.3-8.6 1.6-.7 2.6-2.3 2.6-4 .3-.8.2-1.3 0-1.9zM1952.8 1177c-20.7-11.3-37.5-15.2-60-15.2-6.2 0-12.5.4-18.8 1-44.2 4.8-83.4 29.5-105.2 68.1-13.9 24.7-19.6 50.3-19.6 76.6 0 10 .8 20 2.3 30.1 3.8 26 13.7 49.2 31.6 68.4 24.3 26.1 54.8 37.3 89.5 40.7 6.5.6 13 .9 19.4.9 21.3 0 42.3-3.3 63.2-8.7 10.4-2.7 20.5-6.2 30.3-11.3 2.2-1.1 3.5-3.4 3.5-5.7 0-.8-.2-1.6-.5-2.4l-11.7-27.4c-1-2.4-3.3-3.8-5.8-3.8-.8 0-1.6.2-2.4.5-16.6 7.2-33.4 11.8-51.1 12.9-6.4.4-12.7.7-19.1.7-11.5 0-23-.9-34.3-3.9-34.1-8.9-54.7-34.5-58.3-67.4l-.1-1s106.2 0 124.6-.1c8.8 0 17.8-.6 26.5-1.9 26.1-3.7 37.4-18.8 43.1-43.8 1.5-6.5 2.1-13.1 2.1-19.7 0-4.5-.3-9-.8-13.6-4-32.3-19.4-58.1-48.4-74zm1.5 94.3c-1.5 10-7.7 16.9-17.6 19.2-5.7 1.3-11.6 2.1-17.5 2.2-20.7.1-41.4.1-62.1.1-15.9 0-53.1-.1-53.1-.1v-1c.8-40 25.2-78.7 64.8-88 7.5-1.7 14.9-2.7 22.2-2.7 15.9 0 31.2 4.6 45.1 15.3 12.3 9.5 18 22.8 19.1 37.8.1 1.5.2 3 .2 4.4-.1 4.3-.5 8.6-1.1 12.8zM2198.4 1303.5c.5-8.9 37.9-36.3 61.3-77.4 10.9-19.2 15.8-32.7 16.5-43 1.2-16.7.3-21.6-20.5-21.7-26.3-.1-22.8 5.6-25.7 17.1-1.7 6.7-4.5 12.9-7.3 19.6-12.2 29.2-46.5 64.4-51.9 64.2-2.3-.1-6.6-6.5-7.8-8.1-3.2-4.2-54-74.8-63.3-81.9-9.3-7-22-11.1-35.7-11.1-2.9 0-6 .2-9.2.6-3.5.4-15.2 4.7-9.8 12.6 0 0 77.2 98.8 82.4 109.7 1.3 2.7 3.2 5.1 3.2 7.3v.1c0 2.5-2.3 4.8-4.2 7.2-40.5 51.6-62.6 59.4-77.1 96-3.8 9.6-6.6 23.6-6.6 31.5 0 14.8-1 22 17.1 21.8 15.1-.1 24.4 2.2 26.4-10.6 1.1-7 1.8-12.2 4.4-18.9 11.3-29 35.7-52.1 56.7-74.1 2-2.1 6.2-8.6 10.7-8.3 4.7.3 7.8 5.8 11.1 10.4 16.9 23.4 68 86.5 83.9 96 5.7 3.4 24.3 12.3 44.6-2 8.1-5.8 1-11.7-.5-13-22.8-18.3-98.6-106.5-98.8-124"/></g><linearGradient id="a" x1="2419.996" x2="2265.01" y1="747.691" y2="638.361" gradientUnits="userSpaceOnUse"><stop offset="0" stop-color="#376b7a"/><stop offset=".215" stop-color="#4b9e97"/><stop offset="1" stop-color="#c2dfc3"/></linearGradient><path fill="url(#a)" d="M2401.4 642.9s-23.5-64.5-90.9-35.7c-67.4 28.8-85.7 109.3-85.7 109.3 130.8-61.9 180.3 37.8 185 45.7 10-83.5-8.4-119.3-8.4-119.3z"/><linearGradient id="b" x1="2213.004" x2="2386.121" y1="865.433" y2="928.853" gradientUnits="userSpaceOnUse"><stop offset="0" stop-color="#376b7a"/><stop offset=".197" stop-color="#4b9e97"/><stop offset=".36" stop-color="#6eb3a5"/><stop offset=".531" stop-color="#8ec4b1"/><stop offset=".717" stop-color="#abd3bb"/><stop offset=".879" stop-color="#bcdcc1"/><stop offset="1" stop-color="#c2dfc3"/></linearGradient><path fill="url(#b)" d="M2249.7 922c51.1 76.9 128.1 89 128.7 89.1-4.2-41.1 1.9-88.6 8.9-126.9-178.7-26.3-184-102.1-184.1-109.6-2.8 43.2 13.4 97.7 46.5 147.4z"/><linearGradient id="c" x1="2274.633" x2="2244.096" y1="721.774" y2="1007.516" gradientUnits="userSpaceOnUse"><stop offset="0" stop-color="#c2dfc3"/><stop offset=".162" stop-color="#bddcc1"/><stop offset=".353" stop-color="#afd4bc"/><stop offset=".559" stop-color="#97c7b3"/><stop offset=".775" stop-color="#76b5a7"/><stop offset=".997" stop-color="#4c9e97"/><stop offset="1" stop-color="#4b9e97"/></linearGradient><path fill="url(#c)" d="M2224.7 716.4s-92.2 33.8-100.7 137.2c-6.5 81.2 73.4 124.4 80.4 128 0 0 61.1 36.3 174.9 38.2-.6-4.6-1-8.7-1-8.7s-77.3-12-128.5-89.1-61.7-164.9-25.1-205.6z"/><linearGradient id="d" x1="2451.348" x2="2792.195" y1="948.341" y2="893.767" gradientUnits="userSpaceOnUse"><stop offset="0" stop-color="#c2dfc3"/><stop offset=".117" stop-color="#bcdcc1"/><stop offset=".279" stop-color="#aad2ba"/><stop offset=".465" stop-color="#8dc3b0"/><stop offset=".626" stop-color="#6eb3a5"/><stop offset=".842" stop-color="#4b9e97"/><stop offset=".889" stop-color="#479390"/><stop offset=".974" stop-color="#3b747f"/><stop offset=".996" stop-color="#376b7a"/></linearGradient><path fill="url(#d)" d="M2809.8 897.9c-2.7-12.6-8.6-23.4-17.2-31.1-5.6-5-12.4-8.8-20.2-10.8-.1 0-.2-.1-.3-.1-67.5-16-150.3 3.6-199 12.2-40.5 7.1-84.5 15-126.2 17.5v11.1c0 47.2 14.7 83.8 38 110 25.9-6.1 74.8-19.6 132.5-49.3 96.9-50 157.1-61.3 193.4-53.1-.2-2.3-.6-4.4-1-6.4z"/><radialGradient id="e" cx="2466.457" cy="1032.047" r="268.196" fx="2437.64" fy="1031.842" gradientTransform="translate(.802 .474) scale(.9995)" gradientUnits="userSpaceOnUse"><stop offset="0" stop-color="#4b9e97"/><stop offset="1" stop-color="#c2dfc3"/></radialGradient><path fill="url(#e)" d="M2802.7 866.1c-9.6-4.4-19.8-7.7-30.3-10.2h.1c7.8 2.1 14.5 5.8 20.1 10.8 8.6 7.7 14.5 18.5 17.2 31.1.4 2.1.7 4.2 1 6.3.4 2.9.6 5.9.6 9 .2 25.3-11 54.9-36.9 80.6-16.9 16.8-40 32-70.2 43.3-19.2 7.4-40.8 13.2-64.8 16.6-12.2 1.7-23.7 2.6-34.4 2.6-46 .3-90.2-16.2-120.1-49.8-23.4-26.2-38-62.8-38-110v-.2-10.7-.2c.9-62.9 17.3-133.1 11-177-3-20.7-14.2-65.6-51-90.9-36.6-25.1-68.6-17.9-73.6-17.1l4.3-.5c34.4-2.9 54.8 22.1 63.6 42.9 9.9 23.3 14.7 62.6 8.4 119.3-1.1 18.5-8.4 56.9-12.7 75.5-9.2 39.6-26.4 119.9-17.7 182.1 16 116.3 100.1 177.5 200 177.8 153.4.4 283.5-111.5 284.2-235.9.4-54.6-35.1-83.5-60.8-95.4z"/></svg>
